<?xml version="1.0" encoding="UTF-8" standalone="no"?>
<svg
   version="1.1"
   viewBox="0 0 16 16"
   id="svg1"
   sodipodi:docname="audio-volume-muted-symbolic.svg"
   inkscape:version="1.4 (e7c3feb100, 2024-10-09)"
   xmlns:inkscape="http://www.inkscape.org/namespaces/inkscape"
   xmlns:sodipodi="http://sodipodi.sourceforge.net/DTD/sodipodi-0.dtd"
   xmlns="http://www.w3.org/2000/svg"
   xmlns:svg="http://www.w3.org/2000/svg">
  <defs
     id="defs1" />
  <sodipodi:namedview
     id="namedview1"
     pagecolor="#ffffff"
     bordercolor="#111111"
     borderopacity="1"
     inkscape:showpageshadow="0"
     inkscape:pageopacity="0"
     inkscape:pagecheckerboard="1"
     inkscape:deskcolor="#d1d1d1"
     inkscape:zoom="49.1875"
     inkscape:cx="8"
     inkscape:cy="8"
     inkscape:window-width="1920"
     inkscape:window-height="988"
     inkscape:window-x="0"
     inkscape:window-y="0"
     inkscape:window-maximized="1"
     inkscape:current-layer="svg1" />
  <g
     transform="rotate(45 8.3143 8.1979)"
     fill="#808080"
     id="g1"
     style="fill:#000000;fill-opacity:1">
    <path
       d="m1.4473 10.444s0.017231 1.2477 1.5078 2.7383c1.4913 1.4913 2.7344 1.5039 2.7344 1.5039l1.0078-1.0059v-6.6563l-3.6949-3.6935 0.30432 5.2541zm6.25 6.9805h1v-4.5703l4.2046 0.37576-4.2046-4.2059v-3.6758c1.3581 0.31648 2.3189 1.5274 2.3184 2.9219l-2e-3 0.50195h1l2e-3 -0.50195c-4.9e-5 -1.9461-1.4007-3.6098-3.3184-3.9414v-2.0176c3.0296 0.34595 5.3178 2.9097 5.3184 5.959l-2e-3 0.50195h1v-0.5c-0.00788-3.5954-2.7382-6.6001-6.3164-6.9512v-2.2832h-1v13.793z"
       fill="#808080"
       opacity=".5"
       id="path1"
       style="fill:#000000;fill-opacity:1" />
  </g>
  <path
     style="fill:#000000;fill-opacity:1;stroke-width:0.0768392"
     d="M 1.8131758,10.841169 C 1.5478994,10.51422 1.2915006,9.9242867 1.1615163,9.3418043 0.92442831,8.2793714 0.97167311,7.0166618 1.2837809,6.0740448 1.4193498,5.6646042 1.5825425,5.3347891 1.7869265,5.0571792 L 1.880475,4.9301144 H 3.1987324 4.5169899 L 6.2534124,2.9801545 7.9898348,1.0301946 7.9949955,3.6153679 8.0001561,6.2005412 5.6367055,8.5640571 3.2732548,10.927573 H 2.578268 1.8832813 Z"
     id="path2" />
  <path
     style="fill:#000000;fill-opacity:1;stroke-width:0.0768392"
     d="M 1.7128005,14.632756 1.3725058,14.292019 7.8679236,7.7966254 14.363341,1.3012314 14.703821,1.6417108 15.0443,1.9821903 14.24642,2.7802629 c -0.438835,0.4389399 -0.797881,0.8076011 -0.797881,0.8192469 0,0.011646 0.05602,0.093941 0.124483,0.1828782 0.520554,0.6762005 0.941919,1.5048266 1.175645,2.3119437 0.608579,2.101573 0.200395,4.3736833 -1.098624,6.1153603 -0.211647,0.283769 -0.526186,0.64272 -0.804921,0.918574 l -0.200221,0.198151 -0.344769,-0.345218 -0.34477,-0.345217 0.295203,-0.300202 c 0.162362,-0.165111 0.341414,-0.355094 0.397894,-0.422184 0.949017,-1.127299 1.449633,-2.5704139 1.403467,-4.0457434 -0.02194,-0.7012609 -0.13593,-1.29745 -0.369936,-1.9349054 -0.173156,-0.4716965 -0.626058,-1.2840431 -0.870804,-1.561918 l -0.07163,-0.081321 -0.712855,0.7114539 c -0.39207,0.3912998 -0.712855,0.7173776 -0.712855,0.7246172 0,0.00724 0.05112,0.094201 0.113603,0.1932475 0.224798,0.3563521 0.377377,0.7131395 0.485639,1.1356115 0.09401,0.3668541 0.121636,0.5948883 0.12069,0.996188 -0.0017,0.7408409 -0.185301,1.4058393 -0.559576,2.0272717 -0.191638,0.31819 -0.325087,0.485784 -0.652123,0.81898 L 10.522761,11.202033 10.17703,10.857425 9.8312991,10.512817 10.130523,10.206853 C 10.441338,9.8890385 10.589982,9.6903014 10.739515,9.3926306 11.097754,8.6794976 11.157532,7.8510617 10.906239,7.0820755 10.837249,6.8709705 10.646,6.4751195 10.60548,6.4595702 10.58834,6.4529902 10.088017,6.9387371 9.2889836,7.7376962 l -1.2888532,1.2887333 -0.00515,2.9710315 -0.00515,2.971031 -1.340346,-1.603687 c -0.737186,-0.882028 -1.3501252,-1.603687 -1.3620827,-1.603687 -0.011958,0 -0.7445683,0.722785 -1.6280238,1.606188 l -1.6062827,1.606187 z"
     id="path3" />
</svg>
