<?xml version="1.0" encoding="UTF-8" standalone="no"?>
<svg
   version="1.1"
   viewBox="0 0 16 16"
   id="svg3"
   sodipodi:docname="audio-volume-high-symbolic.svg"
   inkscape:version="1.4 (e7c3feb100, 2024-10-09)"
   xmlns:inkscape="http://www.inkscape.org/namespaces/inkscape"
   xmlns:sodipodi="http://sodipodi.sourceforge.net/DTD/sodipodi-0.dtd"
   xmlns="http://www.w3.org/2000/svg"
   xmlns:svg="http://www.w3.org/2000/svg">
  <defs
     id="defs3" />
  <sodipodi:namedview
     id="namedview3"
     pagecolor="#ffffff"
     bordercolor="#111111"
     borderopacity="1"
     inkscape:showpageshadow="0"
     inkscape:pageopacity="0"
     inkscape:pagecheckerboard="1"
     inkscape:deskcolor="#d1d1d1"
     inkscape:zoom="49.1875"
     inkscape:cx="8"
     inkscape:cy="8"
     inkscape:window-width="1920"
     inkscape:window-height="988"
     inkscape:window-x="0"
     inkscape:window-y="0"
     inkscape:window-maximized="1"
     inkscape:current-layer="svg3" />
  <g
     fill="gray"
     id="g3"
     style="fill:#000000;fill-opacity:1">
    <path
       d="m8 1-3.5 4h-2.63s-0.87 0.893-0.87 3.001c0 2.109 0.87 2.999 0.87 2.999h2.63l3.5 4z"
       id="path1"
       style="fill:#000000;fill-opacity:1" />
    <path
       d="M10.524 4.926l-.707.707.354.354a2.999 2.999 0 0 1 0 4.242l-.354.353.707.707.354-.353a4 4 0 0 0 0-5.656z"
       font-family="sans-serif"
       font-weight="400"
       overflow="visible"
       style="font-feature-settings:normal;font-variant-alternates:normal;font-variant-caps:normal;font-variant-ligatures:normal;font-variant-numeric:normal;font-variant-position:normal;isolation:auto;mix-blend-mode:normal;shape-padding:0;text-decoration-color:#000;text-decoration-line:none;text-decoration-style:solid;text-indent:0;text-orientation:mixed;text-transform:none;fill:#000000;fill-opacity:1"
       white-space="normal"
       id="path2" />
    <path
       d="M12.645 2.805l-.707.707.354.353a5.999 5.999 0 0 1 0 8.485l-.354.353.707.707.354-.353a7 7 0 0 0 0-9.899z"
       font-family="sans-serif"
       font-weight="400"
       overflow="visible"
       style="font-feature-settings:normal;font-variant-alternates:normal;font-variant-caps:normal;font-variant-ligatures:normal;font-variant-numeric:normal;font-variant-position:normal;isolation:auto;mix-blend-mode:normal;shape-padding:0;text-decoration-color:#000;text-decoration-line:none;text-decoration-style:solid;text-indent:0;text-orientation:mixed;text-transform:none;fill:#000000;fill-opacity:1"
       white-space="normal"
       id="path3" />
  </g>
</svg>
